<svg width="45" height="46" viewBox="0 0 45 46" fill="none" xmlns="http://www.w3.org/2000/svg">
<g clip-path="url(#clip0_218_6134)">
<path d="M22.4177 0.835449C10.0369 0.835449 0 10.8723 0 23.2532C0 33.7662 7.23823 42.588 17.0025 45.0109V30.104H12.38V23.2532H17.0025V20.3012C17.0025 12.6711 20.4557 9.13449 27.9468 9.13449C29.3672 9.13449 31.8179 9.41337 32.8204 9.69135V15.9011C32.2914 15.8455 31.3723 15.8177 30.2307 15.8177C26.5551 15.8177 25.1347 17.2102 25.1347 20.8303V23.2532H32.4573L31.1992 30.104H25.1347V45.5068C36.2351 44.1662 44.8363 34.7149 44.8363 23.2532C44.8354 10.8723 34.7986 0.835449 22.4177 0.835449Z" fill="#FF1054"/>
</g>
<defs>
<clipPath id="clip0_218_6134">
<rect width="44.8354" height="44.8354" fill="white" transform="translate(0 0.835449)"/>
</clipPath>
</defs>
</svg>
