<svg width="45" height="45" viewBox="0 0 45 45" fill="none" xmlns="http://www.w3.org/2000/svg">
<g clip-path="url(#clip0_218_6244)">
<path d="M22.4177 0C10.0369 0 0 10.0369 0 22.4177C0 32.9307 7.23823 41.7526 17.0025 44.1755V29.2686H12.38V22.4177H17.0025V19.4658C17.0025 11.8357 20.4557 8.29904 27.9468 8.29904C29.3672 8.29904 31.8179 8.57792 32.8204 8.8559V15.0656C32.2914 15.01 31.3723 14.9822 30.2307 14.9822C26.5551 14.9822 25.1347 16.3748 25.1347 19.9948V22.4177H32.4573L31.1992 29.2686H25.1347V44.6713C36.2351 43.3308 44.8363 33.8795 44.8363 22.4177C44.8354 10.0369 34.7986 0 22.4177 0Z" fill="#FAFAFA"/>
</g>
<defs>
<clipPath id="clip0_218_6244">
<rect width="44.8354" height="44.8354" fill="white"/>
</clipPath>
</defs>
</svg>
