<svg width="300" height="303" viewBox="0 0 300 303" fill="none" xmlns="http://www.w3.org/2000/svg">
<circle cx="150" cy="153" r="150" fill="#FF1054"/>
<path d="M109 220V91.2H175.4C185.933 91.2 194.6 93.3333 201.4 97.6C208.333 101.733 213.467 107.4 216.8 114.6C220.133 121.8 221.8 129.8 221.8 138.6C221.8 147.667 219.867 155.733 216 162.8C212.133 169.867 206.667 175.4 199.6 179.4C192.533 183.4 184.2 185.4 174.6 185.4H146.6V220H109ZM146.6 156.6H166C171.867 156.6 176.2 154.933 179 151.6C181.933 148.267 183.4 143.933 183.4 138.6C183.4 132.867 182.067 128.333 179.4 125C176.733 121.667 172.6 120 167 120H146.6V156.6Z" fill="#FAFAFA"/>
</svg>
