<svg width="45" height="46" viewBox="0 0 45 46" fill="none" xmlns="http://www.w3.org/2000/svg">
<g clip-path="url(#clip0_218_6154)">
<path d="M22.4177 4.87239C28.4075 4.87239 29.1168 4.89866 31.4724 5.00374C33.6616 5.10007 34.8438 5.46786 35.6319 5.77435C36.674 6.17717 37.4271 6.66756 38.2065 7.44693C38.9946 8.23505 39.4762 8.97939 39.879 10.0215C40.1855 10.8096 40.5533 12.0005 40.6496 14.181C40.7547 16.5454 40.781 17.2547 40.781 23.2357C40.781 29.2254 40.7547 29.9347 40.6496 32.2903C40.5533 34.4795 40.1855 35.6617 39.879 36.4499C39.4762 37.4919 38.9858 38.245 38.2065 39.0244C37.4183 39.8125 36.674 40.2941 35.6319 40.697C34.8438 41.0035 33.6529 41.3712 31.4724 41.4676C29.108 41.5727 28.3987 41.5989 22.4177 41.5989C16.428 41.5989 15.7187 41.5727 13.3631 41.4676C11.1738 41.3712 9.99165 41.0035 9.20353 40.697C8.16145 40.2941 7.40836 39.8038 6.62899 39.0244C5.84087 38.2363 5.35924 37.4919 4.95642 36.4499C4.64993 35.6617 4.28214 34.4708 4.18581 32.2903C4.08073 29.9259 4.05446 29.2166 4.05446 23.2357C4.05446 17.2459 4.08073 16.5366 4.18581 14.181C4.28214 11.9918 4.64993 10.8096 4.95642 10.0215C5.35924 8.97939 5.84962 8.22629 6.62899 7.44693C7.41711 6.6588 8.16145 6.17717 9.20353 5.77435C9.99165 5.46786 11.1826 5.10007 13.3631 5.00374C15.7187 4.89866 16.428 4.87239 22.4177 4.87239ZM22.4177 0.835449C16.3317 0.835449 15.5698 0.86172 13.1792 0.966803C10.7973 1.07189 9.15974 1.45719 7.74112 2.00888C6.2612 2.58683 5.00896 3.34869 3.76548 4.60093C2.51324 5.84441 1.75138 7.09665 1.17343 8.56781C0.621741 9.99519 0.236437 11.624 0.131354 14.0059C0.0262708 16.4053 0 17.1671 0 23.2532C0 29.3392 0.0262708 30.1011 0.131354 32.4917C0.236437 34.8736 0.621741 36.5112 1.17343 37.9298C1.75138 39.4097 2.51324 40.6619 3.76548 41.9054C5.00896 43.1489 6.2612 43.9195 7.73236 44.4887C9.15974 45.0404 10.7885 45.4257 13.1704 45.5308C15.5611 45.6359 16.3229 45.6621 22.409 45.6621C28.495 45.6621 29.2569 45.6359 31.6475 45.5308C34.0294 45.4257 35.6669 45.0404 37.0856 44.4887C38.5567 43.9195 39.809 43.1489 41.0525 41.9054C42.2959 40.6619 43.0665 39.4097 43.6357 37.9385C44.1874 36.5112 44.5727 34.8824 44.6778 32.5005C44.7829 30.1098 44.8092 29.348 44.8092 23.2619C44.8092 17.1759 44.7829 16.414 44.6778 14.0234C44.5727 11.6415 44.1874 10.0039 43.6357 8.58533C43.0841 7.09665 42.3222 5.84441 41.07 4.60093C39.8265 3.35744 38.5742 2.58683 37.1031 2.01763C35.6757 1.46595 34.0469 1.08064 31.665 0.97556C29.2656 0.86172 28.5038 0.835449 22.4177 0.835449Z" fill="#FF1054"/>
<path d="M22.4177 11.7378C16.0602 11.7378 10.9024 16.8956 10.9024 23.2531C10.9024 29.6107 16.0602 34.7685 22.4177 34.7685C28.7753 34.7685 33.9331 29.6107 33.9331 23.2531C33.9331 16.8956 28.7753 11.7378 22.4177 11.7378ZM22.4177 30.7228C18.2932 30.7228 14.9481 27.3777 14.9481 23.2531C14.9481 19.1286 18.2932 15.7835 22.4177 15.7835C26.5422 15.7835 29.8874 19.1286 29.8874 23.2531C29.8874 27.3777 26.5422 30.7228 22.4177 30.7228Z" fill="#FF1054"/>
<path d="M37.0768 11.2824C37.0768 12.7711 35.8684 13.9708 34.3885 13.9708C32.8998 13.9708 31.7001 12.7623 31.7001 11.2824C31.7001 9.79369 32.9085 8.59399 34.3885 8.59399C35.8684 8.59399 37.0768 9.80245 37.0768 11.2824Z" fill="#FF1054"/>
</g>
<defs>
<clipPath id="clip0_218_6154">
<rect width="44.8354" height="44.8354" fill="white" transform="translate(0 0.835449)"/>
</clipPath>
</defs>
</svg>
