<svg width="45" height="45" viewBox="0 0 45 45" fill="none" xmlns="http://www.w3.org/2000/svg">
<g clip-path="url(#clip0_218_6182)">
<path d="M22.4177 4.03694C28.4075 4.03694 29.1168 4.06321 31.4724 4.16829C33.6616 4.26462 34.8438 4.63241 35.6319 4.9389C36.674 5.34172 37.4271 5.83211 38.2065 6.61148C38.9946 7.3996 39.4762 8.14394 39.879 9.18601C40.1855 9.97414 40.5533 11.1651 40.6496 13.3455C40.7547 15.7099 40.781 16.4192 40.781 22.4002C40.781 28.3899 40.7547 29.0993 40.6496 31.4549C40.5533 33.6441 40.1855 34.8263 39.879 35.6144C39.4762 36.6565 38.9858 37.4096 38.2065 38.1889C37.4183 38.9771 36.674 39.4587 35.6319 39.8615C34.8438 40.168 33.6529 40.5358 31.4724 40.6321C29.108 40.7372 28.3987 40.7635 22.4177 40.7635C16.428 40.7635 15.7187 40.7372 13.3631 40.6321C11.1738 40.5358 9.99165 40.168 9.20353 39.8615C8.16145 39.4587 7.40836 38.9683 6.62899 38.1889C5.84087 37.4008 5.35924 36.6565 4.95642 35.6144C4.64993 34.8263 4.28214 33.6353 4.18581 31.4549C4.08073 29.0905 4.05446 28.3812 4.05446 22.4002C4.05446 16.4105 4.08073 15.7012 4.18581 13.3455C4.28214 11.1563 4.64993 9.97414 4.95642 9.18601C5.35924 8.14394 5.84962 7.39084 6.62899 6.61148C7.41711 5.82335 8.16145 5.34172 9.20353 4.9389C9.99165 4.63241 11.1826 4.26462 13.3631 4.16829C15.7187 4.06321 16.428 4.03694 22.4177 4.03694ZM22.4177 0C16.3317 0 15.5698 0.0262708 13.1792 0.131354C10.7973 0.236437 9.15974 0.621741 7.74112 1.17343C6.2612 1.75138 5.00896 2.51324 3.76548 3.76548C2.51324 5.00896 1.75138 6.2612 1.17343 7.73236C0.621741 9.15974 0.236437 10.7885 0.131354 13.1704C0.0262708 15.5698 0 16.3317 0 22.4177C0 28.5038 0.0262708 29.2656 0.131354 31.6563C0.236437 34.0382 0.621741 35.6757 1.17343 37.0943C1.75138 38.5742 2.51324 39.8265 3.76548 41.07C5.00896 42.3134 6.2612 43.0841 7.73236 43.6533C9.15974 44.2049 10.7885 44.5902 13.1704 44.6953C15.5611 44.8004 16.3229 44.8267 22.409 44.8267C28.495 44.8267 29.2569 44.8004 31.6475 44.6953C34.0294 44.5902 35.6669 44.2049 37.0856 43.6533C38.5567 43.0841 39.809 42.3134 41.0525 41.07C42.2959 39.8265 43.0665 38.5742 43.6357 37.1031C44.1874 35.6757 44.5727 34.0469 44.6778 31.665C44.7829 29.2744 44.8092 28.5125 44.8092 22.4265C44.8092 16.3404 44.7829 15.5786 44.6778 13.1879C44.5727 10.806 44.1874 9.1685 43.6357 7.74988C43.0841 6.2612 42.3222 5.00896 41.07 3.76548C39.8265 2.52199 38.5742 1.75138 37.1031 1.18218C35.6757 0.630498 34.0469 0.245194 31.665 0.140111C29.2656 0.0262708 28.5038 0 22.4177 0Z" fill="#FAFAFA"/>
<path d="M22.4177 10.9023C16.0602 10.9023 10.9023 16.0602 10.9023 22.4177C10.9023 28.7752 16.0602 33.9331 22.4177 33.9331C28.7752 33.9331 33.9331 28.7752 33.9331 22.4177C33.9331 16.0602 28.7752 10.9023 22.4177 10.9023ZM22.4177 29.8874C18.2932 29.8874 14.948 26.5422 14.948 22.4177C14.948 18.2932 18.2932 14.948 22.4177 14.948C26.5422 14.948 29.8874 18.2932 29.8874 22.4177C29.8874 26.5422 26.5422 29.8874 22.4177 29.8874Z" fill="#FAFAFA"/>
<path d="M37.0769 10.4472C37.0769 11.9358 35.8685 13.1355 34.3886 13.1355C32.8999 13.1355 31.7002 11.9271 31.7002 10.4472C31.7002 8.95849 32.9087 7.75879 34.3886 7.75879C35.8685 7.75879 37.0769 8.96725 37.0769 10.4472Z" fill="#FAFAFA"/>
</g>
<defs>
<clipPath id="clip0_218_6182">
<rect width="44.8354" height="44.8354" fill="white"/>
</clipPath>
</defs>
</svg>
