<svg width="46" height="46" viewBox="0 0 46 46" fill="none" xmlns="http://www.w3.org/2000/svg">
<g clip-path="url(#clip0_218_6144)">
<path d="M42.4191 0.835449H3.38208C1.51209 0.835449 0 2.28034 0 4.06675V42.4308C0 44.2172 1.51209 45.6709 3.38208 45.6709H42.4191C44.2891 45.6709 45.8101 44.2172 45.8101 42.4396V4.06675C45.8101 2.28034 44.2891 0.835449 42.4191 0.835449ZM13.5909 39.0419H6.79099V17.64H13.5909V39.0419ZM10.191 14.7239C8.00783 14.7239 6.24521 12.9988 6.24521 10.8709C6.24521 8.74295 8.00783 7.01784 10.191 7.01784C12.3652 7.01784 14.1278 8.74295 14.1278 10.8709C14.1278 12.9901 12.3652 14.7239 10.191 14.7239ZM39.037 39.0419H32.246V28.6387C32.246 26.1605 32.2013 22.9642 28.7119 22.9642C25.1777 22.9642 24.6408 25.6701 24.6408 28.4635V39.0419H17.8588V17.64H24.3724V20.5648H24.4619C25.3656 18.8835 27.5845 17.1058 30.886 17.1058C37.7665 17.1058 39.037 21.5368 39.037 27.2989V39.0419Z" fill="#FF1054"/>
</g>
<defs>
<clipPath id="clip0_218_6144">
<rect width="45.8101" height="44.8354" fill="white" transform="translate(0 0.835449)"/>
</clipPath>
</defs>
</svg>
