<svg width="46" height="45" viewBox="0 0 46 45" fill="none" xmlns="http://www.w3.org/2000/svg">
<g clip-path="url(#clip0_218_6199)">
<path d="M42.4191 0H3.38208C1.51209 0 0 1.44489 0 3.2313V41.5954C0 43.3818 1.51209 44.8354 3.38208 44.8354H42.4191C44.2891 44.8354 45.8101 43.3818 45.8101 41.6041V3.2313C45.8101 1.44489 44.2891 0 42.4191 0ZM13.5909 38.2064H6.79099V16.8045H13.5909V38.2064ZM10.191 13.8885C8.00783 13.8885 6.24521 12.1634 6.24521 10.0354C6.24521 7.9075 8.00783 6.18239 10.191 6.18239C12.3652 6.18239 14.1278 7.9075 14.1278 10.0354C14.1278 12.1546 12.3652 13.8885 10.191 13.8885ZM39.037 38.2064H32.246V27.8032C32.246 25.325 32.2013 22.1287 28.7119 22.1287C25.1777 22.1287 24.6408 24.8346 24.6408 27.6281V38.2064H17.8588V16.8045H24.3724V19.7293H24.4619C25.3656 18.048 27.5845 16.2704 30.886 16.2704C37.7665 16.2704 39.037 20.7014 39.037 26.4634V38.2064Z" fill="#FAFAFA"/>
</g>
<defs>
<clipPath id="clip0_218_6199">
<rect width="45.8101" height="44.8354" fill="white"/>
</clipPath>
</defs>
</svg>
