<svg width="45" height="46" viewBox="0 0 45 46" fill="none" xmlns="http://www.w3.org/2000/svg">
<g clip-path="url(#clip0_218_6149)">
<path d="M44.3888 14.2862C44.3888 14.2862 43.951 11.195 42.6024 9.83767C40.8948 8.05126 38.9858 8.0425 38.1101 7.93742C31.8402 7.48206 22.4265 7.48206 22.4265 7.48206H22.409C22.409 7.48206 12.9953 7.48206 6.72532 7.93742C5.84962 8.0425 3.94062 8.05126 2.23302 9.83767C0.884449 11.195 0.45536 14.2862 0.45536 14.2862C0.45536 14.2862 0 17.9203 0 21.5457V24.9434C0 28.5687 0.446603 32.2029 0.446603 32.2029C0.446603 32.2029 0.884449 35.294 2.22426 36.6514C3.93186 38.4378 6.17363 38.3765 7.17192 38.5691C10.7623 38.9107 22.4177 39.0157 22.4177 39.0157C22.4177 39.0157 31.8402 38.9982 38.1101 38.5516C38.9858 38.4465 40.8948 38.4378 42.6024 36.6514C43.951 35.294 44.3888 32.2029 44.3888 32.2029C44.3888 32.2029 44.8354 28.5775 44.8354 24.9434V21.5457C44.8354 17.9203 44.3888 14.2862 44.3888 14.2862ZM17.7853 29.0679V16.4667L29.8961 22.7892L17.7853 29.0679Z" fill="#FF1054"/>
</g>
<defs>
<clipPath id="clip0_218_6149">
<rect width="44.8354" height="44.8354" fill="white" transform="translate(0 0.835449)"/>
</clipPath>
</defs>
</svg>
