<svg width="45" height="45" viewBox="0 0 45 45" fill="none" xmlns="http://www.w3.org/2000/svg">
<g clip-path="url(#clip0_218_6214)">
<path d="M44.3888 13.4506C44.3888 13.4506 43.951 10.3594 42.6024 9.0021C40.8948 7.21568 38.9858 7.20693 38.1101 7.10184C31.8402 6.64648 22.4265 6.64648 22.4265 6.64648H22.409C22.409 6.64648 12.9953 6.64648 6.72532 7.10184C5.84962 7.20693 3.94062 7.21568 2.23302 9.0021C0.884449 10.3594 0.45536 13.4506 0.45536 13.4506C0.45536 13.4506 0 17.0847 0 20.7101V24.1078C0 27.7332 0.446603 31.3673 0.446603 31.3673C0.446603 31.3673 0.884449 34.4585 2.22426 35.8158C3.93186 37.6022 6.17363 37.5409 7.17192 37.7336C10.7623 38.0751 22.4177 38.1802 22.4177 38.1802C22.4177 38.1802 31.8402 38.1627 38.1101 37.716C38.9858 37.611 40.8948 37.6022 42.6024 35.8158C43.951 34.4585 44.3888 31.3673 44.3888 31.3673C44.3888 31.3673 44.8354 27.7419 44.8354 24.1078V20.7101C44.8354 17.0847 44.3888 13.4506 44.3888 13.4506ZM17.7853 28.2323V15.6311L29.8961 21.9536L17.7853 28.2323Z" fill="#FAFAFA"/>
</g>
<defs>
<clipPath id="clip0_218_6214">
<rect width="44.8354" height="44.8354" fill="white"/>
</clipPath>
</defs>
</svg>
